<svg t="1729064665240" class="icon" viewBox="0 0 1024 1024" version="1.1" xmlns="http://www.w3.org/2000/svg" p-id="15601" data-spm-anchor-id="a313x.search_index.0.i1.7fa33a814TiJdn" width="48" height="48"><path d="M896 448c0-212-172-384-384-384S128 236 128 448c0 192.8 142.4 352.8 328 380l-4 68H256v64h512v-64H573.6l-4-68C754.4 800 896 640.8 896 448zM512 768c-176.8 0-320-143.2-320-320s143.2-320 320-320 320 143.2 320 320-143.2 320-320 320z m0-560c-132.8 0-240 107.2-240 240s107.2 240 240 240 240-107.2 240-240-107.2-240-240-240zM416 512c-52.8 0-96-43.2-96-96s43.2-96 96-96 96 43.2 96 96-43.2 96-96 96z" p-id="15602" data-spm-anchor-id="a313x.search_index.0.i0.7fa33a814TiJdn" class="selected" fill="#ffffff"></path></svg>