<svg viewBox="0 0 24 24" fill="none" xmlns="http://www.w3.org/2000/svg">
  <path d="M22 18.9C21.39 18.96 20.8 19 20.2 19C18.54 19 17 18.58 16 17.84V19C16 19.55 15.55 20 15 20H14V21H10C9.45 21 9 20.55 9 20V17C9 16.45 9.45 16 10 16H16C16.55 16 17 16.45 17 17V18H18V8.5C18 8.22 18.22 8 18.5 8H20.2C21.13 8 22 8.33 22.79 8.84L25 10.5V17H24C23.45 17 23 17.45 23 18V19.85C22.68 19.59 22.35 19.35 22 19.14V18.9Z" stroke="currentColor" stroke-width="2"/>
  <path d="M15.5 4C14.12 4 13 5.12 13 6.5C13 7.88 14.12 9 15.5 9C16.88 9 18 7.88 18 6.5C18 5.12 16.88 4 15.5 4Z" stroke="currentColor" stroke-width="2"/>
</svg> 