<svg t="1728819168489" class="icon" viewBox="0 0 1024 1024" version="1.1" xmlns="http://www.w3.org/2000/svg" p-id="914" width="50" height="50"><path d="M907.2 386.24c20.896 0 37.76 17.888 43.008 45.536 0.384 2.016 9.344 49.92 9.344 87.712 0 38.528-9.28 87.232-9.344 87.744-5.248 27.616-22.144 45.504-43.072 45.504h-4.48a109.76 109.76 0 0 0-109.632 109.6c0 19.52 9.504 41.664 9.6 41.888 10.784 24.32 2.432 54.208-19.456 69.44l-1.344 0.96-112.96 62.4-1.408 0.64a57.888 57.888 0 0 1-23.04 4.608c-17.6 0-34.784-7.328-45.888-19.584-12.416-13.632-55.488-52.544-89.056-52.544-31.04 0-73.024 34.72-88.48 51.52-11.104 12.064-28.128 19.264-45.536 19.264-8.32 0-16.256-1.6-23.488-4.8l-1.376-0.608-108.96-60.928-1.312-0.896a57.6 57.6 0 0 1-19.328-69.568c0.064-0.192 9.536-22.144 9.536-41.792a109.76 109.76 0 0 0-109.632-109.6h-4.544c-20.896 0-37.76-17.888-43.008-45.536C72.96 605.184 64 557.12 64 519.52c0-37.632 8.96-85.728 9.344-87.744 5.248-27.648 22.112-45.536 42.976-45.536h4.576a109.76 109.76 0 0 0 109.632-109.6c0-19.776-9.472-41.632-9.6-41.856a57.44 57.44 0 0 1 19.52-69.472l1.344-0.96 115.04-63.168 1.44-0.64A58.56 58.56 0 0 1 381.376 96c17.344 0 34.4 7.04 45.568 18.816 12.224 12.8 54.528 49.408 87.136 49.408 32.32 0 74.4-35.904 86.56-48.48 11.136-11.52 28.032-18.432 45.216-18.432 8.384 0 16.32 1.6 23.52 4.736l1.408 0.64 111.104 61.696 1.312 0.928c21.856 15.264 30.208 45.152 19.36 69.536-0.064 0.192-9.536 22.176-9.536 41.792a109.76 109.76 0 0 0 109.632 109.632h4.512zM512 647.36a128 128 0 1 0 0-256 128 128 0 0 0 0 256z" p-id="915" data-spm-anchor-id="a313x.collections_detail.0.i0.36963a81bk8l1h" class="selected" fill="#ffffff"></path></svg>