<svg viewBox="0 0 24 24" fill="none" xmlns="http://www.w3.org/2000/svg">
  <path d="M14.7 6.3C14.3 5.9 13.7 5.9 13.3 6.3L12 7.6L10.7 6.3C10.3 5.9 9.7 5.9 9.3 6.3C8.9 6.7 8.9 7.3 9.3 7.7L10.6 9L9.3 10.3C8.9 10.7 8.9 11.3 9.3 11.7C9.5 11.9 9.7 12 10 12C10.3 12 10.5 11.9 10.7 11.7L12 10.4L13.3 11.7C13.5 11.9 13.8 12 14 12C14.2 12 14.5 11.9 14.7 11.7C15.1 11.3 15.1 10.7 14.7 10.3L13.4 9L14.7 7.7C15.1 7.3 15.1 6.7 14.7 6.3Z" fill="#4CAF50"/>
  <path d="M19 3H5C3.9 3 3 3.9 3 5V19C3 20.1 3.9 21 5 21H19C20.1 21 21 20.1 21 19V5C21 3.9 20.1 3 19 3ZM19 19H5V5H19V19Z" fill="#4CAF50"/>
</svg> 