<svg viewBox="0 0 24 24" fill="none" xmlns="http://www.w3.org/2000/svg">
  <path d="M19 16.9C18.39 16.96 17.8 17 17.2 17C15.54 17 14 16.58 13 15.84V17C13 17.55 12.55 18 12 18H11V19C11 19.55 10.55 20 10 20H8V21H4C3.45 21 3 20.55 3 20V17C3 16.45 3.45 16 4 16H10C10.55 16 11 16.45 11 17V18H12V7.5C12 7.22 12.22 7 12.5 7H17.2C18.13 7 19 7.33 19.79 7.84L22 9.5V16H21C20.45 16 20 16.45 20 17V18.85C19.68 18.59 19.35 18.35 19 18.14V16.9ZM17.2 15C19.85 15 22 12.85 22 10.2C22 7.55 19.85 5.4 17.2 5.4C14.55 5.4 12.4 7.55 12.4 10.2C12.4 12.85 14.55 15 17.2 15ZM17.2 6.9C19.02 6.9 20.5 8.38 20.5 10.2C20.5 12.02 19.02 13.5 17.2 13.5C15.38 13.5 13.9 12.02 13.9 10.2C13.9 8.38 15.38 6.9 17.2 6.9Z" fill="#4CAF50"/>
  <path d="M18 11H16.5V9.5C16.5 9.22 16.28 9 16 9C15.72 9 15.5 9.22 15.5 9.5V11H14C13.72 11 13.5 11.22 13.5 11.5C13.5 11.78 13.72 12 14 12H15.5V13.5C15.5 13.78 15.72 14 16 14C16.28 14 16.5 13.78 16.5 13.5V12H18C18.28 12 18.5 11.78 18.5 11.5C18.5 11.22 18.28 11 18 11Z" fill="#4CAF50"/>
</svg> 