<?xml version="1.0" standalone="no"?><!DOCTYPE svg PUBLIC "-//W3C//DTD SVG 1.1//EN" "http://www.w3.org/Graphics/SVG/1.1/DTD/svg11.dtd"><svg height="1024" node-id="1" sillyvg="true" template-height="1024" template-width="1024" version="1.1" viewBox="0 0 1024 1024" width="1024" xmlns="http://www.w3.org/2000/svg" xmlns:xlink="http://www.w3.org/1999/xlink"><defs node-id="20"><linearGradient gradientUnits="objectBoundingBox" id="paint0_linear_604_1423" node-id="8" spreadMethod="pad" x1="-139.458" x2="-139.458" y1="0" y2="1302.92"><stop offset="0.0677083" stop-color="#ff8cd1"></stop><stop offset="0.828125" stop-color="#ffe05b"></stop></linearGradient><linearGradient gradientUnits="objectBoundingBox" id="paint1_linear_604_1423" node-id="11" spreadMethod="pad" x1="1111.1" x2="1111.1" y1="585.143" y2="1008.59"><stop offset="0" stop-color="#ffb022"></stop><stop offset="1" stop-color="#ffd6be"></stop></linearGradient><linearGradient gradientUnits="objectBoundingBox" id="paint2_linear_604_1423" node-id="14" spreadMethod="pad" x1="-197.901" x2="-197.901" y1="654.56" y2="1032.68"><stop offset="0" stop-color="#fed54c"></stop><stop offset="1" stop-color="#fedd3a"></stop></linearGradient><clipPath id="clip0_604_1423" node-id="17"><path d="M 160.00 0.00 L 864.00 0.00 L 872.90 0.30 L 881.60 1.00 L 890.10 2.10 L 898.40 3.70 L 906.50 5.70 L 914.60 8.20 L 922.50 11.00 L 930.10 14.30 L 937.50 17.90 L 944.80 21.80 L 951.80 26.20 L 958.50 30.90 L 965.00 35.90 L 971.20 41.20 L 977.10 46.90 L 982.80 52.80 L 988.10 59.00 L 993.10 65.50 L 997.80 72.20 L 1002.20 79.20 L 1006.10 86.50 L 1009.70 93.90 L 1013.00 101.50 L 1015.80 109.40 L 1018.30 117.50 L 1020.30 125.60 L 1021.90 133.90 L 1023.00 142.40 L 1023.70 151.10 L 1024.00 160.00 L 1024.00 864.00 L 1023.70 872.90 L 1023.00 881.60 L 1021.90 890.10 L 1020.30 898.40 L 1018.30 906.50 L 1015.80 914.60 L 1013.00 922.50 L 1009.70 930.10 L 1006.10 937.50 L 1002.20 944.80 L 997.80 951.80 L 993.10 958.50 L 988.10 965.00 L 982.80 971.20 L 977.10 977.10 L 971.20 982.80 L 965.00 988.10 L 958.50 993.10 L 951.80 997.80 L 944.80 1002.20 L 937.50 1006.10 L 930.10 1009.70 L 922.50 1013.00 L 914.60 1015.80 L 906.50 1018.30 L 898.40 1020.30 L 890.10 1021.90 L 881.60 1023.00 L 872.90 1023.70 L 864.00 1024.00 L 160.00 1024.00 L 151.10 1023.70 L 142.40 1023.00 L 133.90 1021.90 L 125.60 1020.30 L 117.50 1018.30 L 109.40 1015.80 L 101.50 1013.00 L 93.90 1009.70 L 86.50 1006.10 L 79.20 1002.20 L 72.20 997.80 L 65.50 993.10 L 59.00 988.10 L 52.80 982.80 L 46.90 977.10 L 41.20 971.20 L 35.90 965.00 L 30.90 958.50 L 26.20 951.80 L 21.80 944.80 L 17.90 937.50 L 14.30 930.10 L 11.00 922.50 L 8.20 914.60 L 5.70 906.50 L 3.70 898.40 L 2.10 890.10 L 1.00 881.60 L 0.30 872.90 L 0.00 864.00 L 0.00 160.00 L 0.30 151.10 L 1.00 142.40 L 2.10 133.90 L 3.70 125.60 L 5.70 117.50 L 8.20 109.40 L 11.00 101.50 L 14.30 93.90 L 17.90 86.50 L 21.80 79.20 L 26.20 72.20 L 30.90 65.50 L 35.90 59.00 L 41.20 52.80 L 46.90 46.90 L 52.80 41.20 L 59.00 35.90 L 65.50 30.90 L 72.20 26.20 L 79.20 21.80 L 86.50 17.90 L 93.90 14.30 L 101.50 11.00 L 109.40 8.20 L 117.50 5.70 L 125.60 3.70 L 133.90 2.10 L 142.40 1.00 L 151.10 0.30 L 160.00 0.00 Z" fill="#000000" fill-rule="nonzero" node-id="41" stroke="none" target-height="1024" target-width="1024" target-x="0" target-y="0"></path></clipPath></defs><g clip-path="url(#clip0_604_1423)" id="sillyvg_g_0" node-id="45"><path d="M 160.00 0.00 L 864.00 0.00 L 872.90 0.30 L 881.60 1.00 L 890.10 2.10 L 898.40 3.70 L 906.50 5.70 L 914.60 8.20 L 922.50 11.00 L 930.10 14.30 L 937.50 17.90 L 944.80 21.80 L 951.80 26.20 L 958.50 30.90 L 965.00 35.90 L 971.20 41.20 L 977.10 46.90 L 982.80 52.80 L 988.10 59.00 L 993.10 65.50 L 997.80 72.20 L 1002.20 79.20 L 1006.10 86.50 L 1009.70 93.90 L 1013.00 101.50 L 1015.80 109.40 L 1018.30 117.50 L 1020.30 125.60 L 1021.90 133.90 L 1023.00 142.40 L 1023.70 151.10 L 1024.00 160.00 L 1024.00 864.00 L 1023.70 872.90 L 1023.00 881.60 L 1021.90 890.10 L 1020.30 898.40 L 1018.30 906.50 L 1015.80 914.60 L 1013.00 922.50 L 1009.70 930.10 L 1006.10 937.50 L 1002.20 944.80 L 997.80 951.80 L 993.10 958.50 L 988.10 965.00 L 982.80 971.20 L 977.10 977.10 L 971.20 982.80 L 965.00 988.10 L 958.50 993.10 L 951.80 997.80 L 944.80 1002.20 L 937.50 1006.10 L 930.10 1009.70 L 922.50 1013.00 L 914.60 1015.80 L 906.50 1018.30 L 898.40 1020.30 L 890.10 1021.90 L 881.60 1023.00 L 872.90 1023.70 L 864.00 1024.00 L 160.00 1024.00 L 151.10 1023.70 L 142.40 1023.00 L 133.90 1021.90 L 125.60 1020.30 L 117.50 1018.30 L 109.40 1015.80 L 101.50 1013.00 L 93.90 1009.70 L 86.50 1006.10 L 79.20 1002.20 L 72.20 997.80 L 65.50 993.10 L 59.00 988.10 L 52.80 982.80 L 46.90 977.10 L 41.20 971.20 L 35.90 965.00 L 30.90 958.50 L 26.20 951.80 L 21.80 944.80 L 17.90 937.50 L 14.30 930.10 L 11.00 922.50 L 8.20 914.60 L 5.70 906.50 L 3.70 898.40 L 2.10 890.10 L 1.00 881.60 L 0.30 872.90 L 0.00 864.00 L 0.00 160.00 L 0.30 151.10 L 1.00 142.40 L 2.10 133.90 L 3.70 125.60 L 5.70 117.50 L 8.20 109.40 L 11.00 101.50 L 14.30 93.90 L 17.90 86.50 L 21.80 79.20 L 26.20 72.20 L 30.90 65.50 L 35.90 59.00 L 41.20 52.80 L 46.90 46.90 L 52.80 41.20 L 59.00 35.90 L 65.50 30.90 L 72.20 26.20 L 79.20 21.80 L 86.50 17.90 L 93.90 14.30 L 101.50 11.00 L 109.40 8.20 L 117.50 5.70 L 125.60 3.70 L 133.90 2.10 L 142.40 1.00 L 151.10 0.30 L 160.00 0.00 Z" fill="url(#paint0_linear_604_1423)" fill-rule="nonzero" node-id="47" stroke="none" target-height="1024" target-width="1024" target-x="0" target-y="0"></path><path d="M 1111.10 676.00 L 1081.80 659.10 L 1056.20 645.60 L 1040.90 638.10 L 1025.00 630.70 L 1007.60 623.00 L 989.80 615.70 L 971.00 608.70 L 945.50 600.30 L 932.60 596.60 L 919.60 593.30 L 906.60 590.50 L 893.80 588.30 L 884.10 586.90 L 874.60 585.90 L 856.20 585.10 L 844.10 585.40 L 832.30 586.30 L 820.80 587.60 L 809.50 589.40 L 798.30 591.70 L 787.30 594.30 L 776.50 597.40 L 765.90 600.80 L 751.80 605.80 L 738.10 611.30 L 724.60 617.30 L 704.70 626.80 L 685.20 636.80 L 628.40 667.40 L 609.90 676.90 L 597.40 682.90 L 585.00 688.40 L 563.40 696.80 L 544.60 702.50 L 535.20 704.80 L 525.70 706.60 L 516.20 707.90 L 506.50 708.70 L 496.80 709.00 L 464.40 708.30 L 437.10 706.30 L 413.80 703.40 L 397.70 700.70 L 383.90 697.70 L 358.90 691.10 L 326.00 681.50 L 308.00 677.30 L 292.40 674.80 L 284.40 673.90 L 266.10 673.20 L 252.50 673.60 L 238.50 674.50 L 224.00 676.10 L 194.90 680.50 L 157.40 688.00 L 68.30 708.80 L 47.20 713.20 L 19.70 718.00 L 6.80 719.60 L -12.30 721.20 L -29.60 721.20 L -38.20 720.70 L -46.20 719.60 L -53.80 718.10 L -60.90 716.10 L -74.00 711.70 L -100.90 701.40 L -114.10 695.90 L -139.20 684.70 L -161.40 674.20 L -195.00 657.10 L -195.00 988.70 L 1111.10 1008.60 L 1111.10 676.00 Z" fill="url(#paint1_linear_604_1423)" fill-rule="evenodd" node-id="49" stroke="none" target-height="423.5" target-width="1306.1" target-x="-195" target-y="585.1"></path><path d="M -197.90 897.50 L -196.00 875.60 L -192.40 851.60 L -189.70 837.70 L -186.00 822.00 L -183.10 811.50 L -175.80 789.10 L -171.50 777.90 L -166.70 766.60 L -161.20 755.30 L -156.80 747.00 L -146.80 730.70 L -141.20 722.80 L -135.30 715.10 L -129.00 707.80 L -122.30 700.70 L -115.10 693.90 L -107.60 687.50 L -99.60 681.60 L -91.10 676.10 L -82.00 671.00 L -74.70 667.30 L -66.90 664.10 L -58.80 661.10 L -50.20 658.50 L -41.20 656.30 L -31.30 655.20 L -21.60 654.60 L -12.00 654.60 L -2.70 655.20 L 6.70 656.40 L 16.00 657.90 L 25.20 660.00 L 34.30 662.50 L 46.30 666.40 L 58.20 670.90 L 70.10 676.10 L 93.30 687.70 L 121.90 704.10 L 189.40 745.90 L 206.10 755.40 L 217.40 761.50 L 228.60 767.00 L 239.80 771.90 L 248.30 775.40 L 256.80 778.40 L 273.90 783.20 L 282.50 785.10 L 291.10 786.40 L 299.90 787.20 L 308.60 787.40 L 331.10 786.60 L 351.70 784.40 L 365.20 782.20 L 378.20 779.50 L 390.60 776.40 L 402.90 772.80 L 426.50 764.80 L 443.70 758.10 L 460.50 751.00 L 510.40 729.40 L 538.90 718.50 L 562.70 711.10 L 574.90 708.00 L 587.60 705.30 L 600.70 703.10 L 610.60 701.80 L 631.50 700.30 L 642.70 700.10 L 660.80 700.90 L 678.90 703.30 L 691.00 705.60 L 703.20 708.30 L 715.50 711.50 L 733.90 716.90 L 791.20 734.80 L 817.60 742.20 L 831.30 745.60 L 845.00 748.50 L 859.00 751.00 L 873.40 753.10 L 884.30 754.20 L 895.30 754.90 L 906.60 755.20 L 918.20 755.10 L 929.60 754.60 L 941.40 753.50 L 953.50 751.90 L 966.00 749.70 L 1001.40 742.40 L 1030.30 736.10 L 1057.10 729.70 L 1078.20 724.30 L 1097.50 718.90 L 1111.80 714.30 L 1127.70 708.30 L 1138.20 703.20 L 1141.80 700.90 L 1145.60 697.30 L 1146.50 695.90 L 1147.00 693.50 L 1146.50 692.00 L 1145.50 690.60 L 1143.70 689.20 L 1140.60 687.50 L 1136.50 685.90 L 1127.20 683.70 L 1118.10 682.20 L 1108.30 681.20 L 1108.30 1012.80 L -197.90 1032.70 L -197.90 897.50 Z" fill="url(#paint2_linear_604_1423)" fill-rule="evenodd" node-id="51" stroke="none" target-height="378.09998" target-width="1344.9" target-x="-197.9" target-y="654.6"></path><path d="M 487.60 243.80 L 487.30 250.90 L 486.50 257.70 L 485.10 264.40 L 483.30 270.80 L 480.90 277.10 L 478.10 283.10 L 474.80 288.80 L 471.20 294.20 L 467.10 299.40 L 462.60 304.10 L 457.80 308.60 L 452.70 312.70 L 447.20 316.40 L 441.50 319.60 L 435.50 322.40 L 429.30 324.80 L 422.80 326.70 L 416.20 328.00 L 409.40 328.80 L 402.30 329.10 L 395.20 328.80 L 388.40 328.00 L 381.70 326.70 L 375.30 324.80 L 369.00 322.40 L 363.00 319.60 L 357.30 316.40 L 351.90 312.70 L 346.70 308.60 L 341.90 304.10 L 337.50 299.40 L 333.40 294.20 L 329.70 288.80 L 326.50 283.10 L 323.70 277.10 L 321.30 270.80 L 319.40 264.40 L 318.10 257.70 L 317.30 250.90 L 317.00 243.80 L 317.30 236.70 L 318.10 229.90 L 319.40 223.30 L 321.30 216.80 L 323.70 210.60 L 326.50 204.60 L 329.70 198.90 L 333.40 193.40 L 337.50 188.30 L 341.90 183.50 L 346.70 179.00 L 351.90 174.90 L 357.30 171.30 L 363.00 168.00 L 369.00 165.20 L 375.30 162.80 L 381.70 161.00 L 388.40 159.60 L 395.20 158.80 L 402.30 158.50 L 409.40 158.80 L 416.20 159.60 L 422.80 161.00 L 429.30 162.80 L 435.50 165.20 L 441.50 168.00 L 447.20 171.30 L 452.70 174.90 L 457.80 179.00 L 462.60 183.50 L 467.10 188.30 L 471.20 193.40 L 474.80 198.90 L 478.10 204.60 L 480.90 210.60 L 483.30 216.80 L 485.10 223.30 L 486.50 229.90 L 487.30 236.70 L 487.60 243.80 Z" fill="#fff9c7" fill-rule="nonzero" node-id="53" stroke="none" target-height="170.6" target-width="170.6" target-x="317" target-y="158.5"></path></g></svg>